<?xml version="1.0" encoding="utf-8"?>
<!-- Generator: Adobe Illustrator 24.1.2, SVG Export Plug-In . SVG Version: 6.00 Build 0)  -->
<svg version="1.1" id="Layer_1" xmlns="http://www.w3.org/2000/svg" xmlns:xlink="http://www.w3.org/1999/xlink" x="0px" y="0px"
	 viewBox="0 0 156.8 32.4" style="enable-background:new 0 0 156.8 32.4;" xml:space="preserve">
<g>
	<path d="M24.8,2.1v17.6c0,2-0.5,3.7-1.4,5.3c-0.9,1.5-2.2,2.7-3.9,3.5c-1.7,0.8-3.7,1.2-6,1.2c-3.5,0-6.2-0.9-8.1-2.7
		c-1.9-1.8-2.9-4.3-2.9-7.3V2h5.7v16.6c0,2.1,0.4,3.6,1.3,4.6c0.9,1,2.2,1.5,4.2,1.5c1.9,0,3.2-0.5,4.1-1.5c0.9-1,1.3-2.5,1.3-4.6V2
		L24.8,2.1L24.8,2.1z"/>
	<path d="M55.5,29.2h-7.3L36.4,8.7h-0.2c0.2,3.6,0.3,6.2,0.3,7.8v12.8h-5.1V2.1h7.3l11.8,20.3h0.1c-0.2-3.5-0.3-6-0.3-7.5V2.1h5.2
		V29.2z"/>
	<path d="M88.8,29.2h-6.6l-3.7-14.3c-0.2-0.5-0.4-1.5-0.7-3.1c-0.3-1.6-0.5-2.7-0.6-3.2c-0.1,0.7-0.3,1.7-0.5,3.2
		c-0.3,1.5-0.5,2.6-0.7,3.2l-3.7,14.2h-6.5L58.9,2.1h5.7l3.5,14.8c0.6,2.7,1,5.1,1.3,7.1c0.1-0.7,0.2-1.8,0.5-3.3
		c0.3-1.5,0.5-2.6,0.7-3.4l3.9-15.2h5.5L84,17.2c0.2,0.7,0.4,1.7,0.7,3.1s0.5,2.6,0.6,3.6c0.1-1,0.3-2.2,0.6-3.6
		c0.3-1.4,0.5-2.6,0.7-3.5L90,2.1h5.7L88.8,29.2z"/>
	<path d="M99.2,29.2V2.1h5.8v27.1H99.2z"/>
	<path d="M117.5,18.8v10.4h-5.8V2.1h7.9c3.7,0,6.4,0.7,8.2,2s2.7,3.4,2.7,6.1c0,1.6-0.4,3-1.3,4.3c-0.9,1.2-2.1,2.2-3.8,2.9
		c4.1,6.1,6.8,10.1,8,11.8h-6.4l-6.5-10.4H117.5z M117.5,14.1h1.9c1.8,0,3.2-0.3,4-0.9c0.9-0.6,1.3-1.5,1.3-2.9
		c0-1.3-0.4-2.2-1.3-2.7c-0.9-0.5-2.2-0.8-4.1-0.8h-1.7L117.5,14.1L117.5,14.1z"/>
	<path d="M152.5,29.2h-15.6V2.1h15.6v4.7h-9.9v6h9.2v4.7h-9.2v7h9.9V29.2z"/>
</g>
</svg>
