<?xml version="1.0" standalone="no"?>
<!DOCTYPE svg PUBLIC "-//W3C//DTD SVG 20010904//EN"
 "http://www.w3.org/TR/2001/REC-SVG-20010904/DTD/svg10.dtd">
<svg version="1.0" xmlns="http://www.w3.org/2000/svg"
 width="30.000000pt" height="30.000000pt" viewBox="0 0 30.000000 30.000000"
 preserveAspectRatio="xMidYMid meet">

<g transform="translate(0.000000,30.000000) scale(0.100000,-0.100000)"
fill="#000000" stroke="none">
<path d="M82 260 c-56 -34 -67 -117 -22 -165 11 -12 20 -33 20 -48 0 -26 2
-27 50 -27 36 0 50 4 50 14 0 7 14 19 30 26 21 9 30 19 30 36 0 13 8 27 17 33
16 9 16 11 1 28 -9 10 -19 29 -23 43 -18 73 -87 100 -153 60z m78 -50 c0 -28
-23 -110 -31 -110 -12 0 -11 8 2 70 6 27 15 50 20 50 5 0 9 -4 9 -10z m-65
-50 c0 -44 -8 -51 -25 -20 -8 14 -8 26 0 40 17 31 25 24 25 -20z m115 20 c8
-14 8 -26 0 -40 -17 -31 -25 -24 -25 20 0 44 8 51 25 20z"/>
</g>
</svg>
