<?xml version="1.0" standalone="no"?>
<!DOCTYPE svg PUBLIC "-//W3C//DTD SVG 20010904//EN"
 "http://www.w3.org/TR/2001/REC-SVG-20010904/DTD/svg10.dtd">
<svg version="1.0" xmlns="http://www.w3.org/2000/svg"
 width="1200.000000pt" height="958.000000pt" viewBox="0 0 1200.000000 958.000000"
 preserveAspectRatio="xMidYMid meet">

<g transform="translate(0.000000,958.000000) scale(0.100000,-0.100000)"
fill="#000000" stroke="none">
<path d="M6084 8335 c-151 -33 -266 -134 -350 -308 -18 -37 -38 -75 -45 -83
-7 -8 -16 -40 -20 -71 -4 -30 -10 -57 -13 -61 -3 -3 -141 12 -305 32 -165 21
-305 35 -310 31 -20 -12 -12 -55 12 -65 12 -5 148 -26 301 -45 154 -20 283
-38 286 -40 4 -2 1 -48 -6 -102 -18 -143 -34 -376 -34 -502 l0 -111 43 5 c23
3 54 8 70 10 22 4 27 1 27 -15 0 -11 -9 -24 -21 -30 -11 -7 -31 -35 -45 -63
-56 -121 -9 -322 104 -448 67 -74 178 -160 278 -215 l87 -47 -6 -63 -6 -64
105 86 c180 145 374 257 589 339 65 24 120 46 122 49 2 2 -16 32 -42 67 -54
73 -106 178 -134 269 -26 83 -44 240 -39 329 3 65 6 72 47 116 65 70 86 124
86 220 0 88 -17 131 -74 193 -19 20 -31 44 -31 60 0 52 -31 158 -67 231 -49
98 -153 205 -243 249 -125 61 -237 75 -366 47z m-66 -655 c362 -45 372 -47
372 -59 0 -12 -138 -216 -213 -315 -93 -123 -167 -190 -261 -236 -95 -46 -141
-60 -134 -39 2 7 15 16 29 20 23 7 22 7 -6 9 -42 3 -93 0 -139 -6 l-39 -6 7
158 c11 232 40 514 53 514 3 0 152 -18 331 -40z m640 -186 c62 -43 65 -130 6
-221 -19 -29 -34 -56 -34 -59 0 -4 15 5 34 19 l33 26 6 -142 c8 -198 53 -341
153 -486 19 -29 34 -54 32 -56 -2 -2 -45 -19 -96 -39 -186 -71 -404 -196 -551
-314 -35 -29 -66 -50 -68 -48 -2 2 -1 26 2 52 6 43 10 49 31 50 40 3 89 49
148 137 68 102 119 204 141 281 13 46 16 79 11 150 -18 256 -18 322 -2 411 22
131 44 195 76 227 33 32 46 34 78 12z m-534 -1197 c12 -9 17 -23 14 -42 l-3
-30 -22 36 c-32 51 -28 64 11 36z"/>
<path d="M5788 7589 c-16 -6 -28 -15 -28 -19 0 -14 18 -21 25 -10 8 13 61 13
87 -1 25 -13 37 -3 17 16 -20 20 -68 26 -101 14z"/>
<path d="M5812 7478 c-17 -17 -15 -93 3 -108 35 -29 66 23 48 83 -9 34 -31 45
-51 25z"/>
<path d="M5474 7536 c-27 -20 -14 -28 23 -14 25 9 38 9 59 0 14 -7 29 -10 33
-7 11 12 -32 35 -64 35 -17 0 -40 -6 -51 -14z"/>
<path d="M5510 7441 c-14 -28 -12 -74 4 -97 21 -28 50 -7 54 39 5 64 -34 103
-58 58z"/>
<path d="M3529 6037 c-53 -34 -284 -181 -514 -326 l-418 -265 6 -200 c4 -111
10 -309 13 -441 l7 -240 -482 -453 -482 -454 25 -19 c21 -16 41 -19 150 -19
l126 0 -2 -1762 -3 -1763 -602 -3 c-596 -2 -602 -2 -608 -23 -16 -51 -40 -49
774 -47 l756 3 0 30 0 30 -117 3 -118 3 0 914 0 915 939 0 939 0 70 -83 c38
-46 80 -108 93 -138 39 -90 148 -289 208 -379 31 -47 58 -88 59 -93 2 -4 -48
-62 -112 -128 -166 -172 -218 -257 -168 -273 29 -10 166 30 292 84 64 28 120
50 123 50 4 0 7 -131 7 -291 l0 -291 -60 -91 c-33 -51 -68 -113 -78 -139 l-17
-48 -220 -2 -220 -3 0 -30 0 -30 690 0 690 0 0 30 0 30 -352 3 c-287 2 -353 5
-353 16 0 7 77 59 171 116 217 131 362 236 577 417 l33 28 -50 145 c-27 80
-79 211 -116 291 l-67 147 44 53 c24 30 54 71 66 91 l24 38 -36 58 c-83 138
-217 454 -193 460 7 1 57 -12 112 -30 l99 -33 18 -99 c9 -55 19 -113 21 -130
18 -120 150 -680 176 -749 18 -46 118 -50 207 -7 54 27 56 6 -20 225 -30 88
-73 234 -95 325 -40 167 -77 367 -69 375 3 4 251 -34 294 -45 1 0 7 -28 13
-62 46 -244 84 -404 99 -415 28 -23 156 -13 199 15 10 6 7 31 -12 111 -21 84
-75 320 -75 325 0 0 136 1 302 1 310 0 447 9 677 46 68 11 125 18 127 16 2 -2
-3 -71 -10 -153 -30 -313 -30 -293 1 -305 46 -19 106 -21 146 -7 l39 13 -1
241 c-1 185 1 243 11 251 17 13 228 66 235 59 3 -3 0 -42 -7 -88 -32 -226
-109 -534 -181 -728 l-38 -105 22 -17 c12 -9 43 -22 69 -28 39 -10 56 -9 96 4
28 9 56 25 64 34 15 17 49 196 134 702 55 332 49 307 79 314 14 4 29 14 32 24
5 16 61 162 371 977 71 187 189 498 262 690 73 193 177 465 230 605 224 585
286 843 246 1030 -63 297 -330 514 -739 602 -121 26 -392 31 -492 10 -92 -20
-225 -63 -225 -73 0 -19 27 -19 85 1 202 70 525 67 757 -6 284 -90 486 -255
560 -460 27 -74 35 -214 19 -324 -27 -179 -100 -395 -397 -1175 -278 -727
-609 -1596 -665 -1748 l-44 -117 -54 -21 c-83 -31 -343 -104 -471 -133 -376
-84 -762 -117 -1126 -97 -366 21 -628 66 -996 172 -101 30 -108 33 -117 63
-18 55 -40 160 -35 165 2 3 55 -12 117 -32 353 -116 634 -167 1032 -188 373
-20 759 19 1135 115 155 39 190 51 190 66 0 14 -1 13 -94 -15 -189 -57 -491
-112 -749 -136 -165 -15 -610 -6 -767 15 -285 40 -507 89 -735 164 l-110 36
45 7 c25 4 133 12 240 19 586 33 1223 161 1482 297 129 67 314 217 400 322
l36 44 48 -28 c80 -46 167 -120 218 -184 42 -54 66 -74 66 -55 0 4 -16 28 -36
55 -51 70 -154 161 -224 198 l-60 32 31 45 c38 56 81 171 105 284 26 120 26
401 1 520 -10 46 -21 89 -25 95 -14 23 -19 -63 -7 -123 42 -198 24 -424 -49
-639 -63 -185 -268 -396 -517 -531 -272 -148 -982 -280 -1659 -308 -80 -3
-150 -7 -157 -9 -8 -3 -5 -35 12 -113 43 -202 138 -452 241 -634 l45 -79 -45
-63 c-75 -105 -183 -188 -316 -242 -70 -28 -184 -54 -241 -54 l-39 0 2 1062 3
1062 135 58 c291 126 532 204 967 314 106 27 193 52 193 56 0 23 -66 14 -247
-31 -372 -94 -676 -193 -905 -297 -68 -30 -129 -58 -135 -61 -10 -4 -13 17
-13 85 l0 89 118 31 c300 80 472 117 1039 225 50 10 61 15 53 27 -7 12 -43 8
-247 -29 -349 -62 -833 -173 -947 -217 -14 -5 -16 5 -16 80 l0 86 133 0 c103
0 137 3 154 15 17 12 45 84 113 293 50 152 109 340 131 417 22 77 41 146 44
153 3 8 34 -13 87 -60 147 -130 293 -213 487 -277 151 -50 261 -66 411 -58
319 17 573 139 835 402 170 170 285 353 360 577 76 227 83 437 24 687 -46 196
-155 320 -281 321 -119 0 -328 -146 -429 -302 -20 -32 -60 -117 -89 -190 -74
-185 -175 -418 -222 -513 -122 -244 -260 -348 -496 -375 -104 -12 -171 -1
-283 44 -74 31 -385 215 -433 256 -18 17 -39 30 -46 30 -7 0 -67 38 -134 84
-67 46 -140 93 -162 104 -59 30 -142 45 -222 40 -67 -3 -74 -6 -104 -39 -34
-37 -96 -75 -105 -65 -11 10 20 66 51 94 17 15 48 36 69 47 20 11 37 23 37 27
0 11 -8 10 -32 -3 -15 -8 -19 -8 -14 0 22 35 140 71 237 71 118 0 183 -17 329
-85 189 -88 429 -183 518 -206 94 -24 222 -26 222 -4 0 12 -14 15 -62 15 -97
0 -203 29 -388 105 -90 37 -410 185 -435 201 -121 77 -385 66 -385 -17 0 -10
-9 -21 -20 -24 -58 -19 -170 -170 -170 -231 0 -11 -18 -45 -40 -75 -23 -29
-48 -75 -58 -101 l-17 -48 -245 0 c-135 0 -250 4 -257 8 -17 11 -22 91 -28
437 -7 433 -17 725 -24 724 -3 0 -49 -28 -102 -62z m3606 -6 c52 -23 101 -80
135 -156 59 -129 90 -363 71 -531 -61 -541 -507 -1054 -1021 -1175 -111 -26
-281 -35 -393 -20 -317 43 -641 233 -843 497 l-57 75 -72 -7 c-99 -9 -134 5
-220 86 -93 88 -118 100 -202 100 -51 -1 -86 -8 -143 -30 -41 -17 -79 -30 -84
-30 -19 0 41 53 92 82 28 16 52 36 52 44 0 19 -4 18 -89 -16 -40 -17 -82 -30
-94 -30 -20 0 -20 1 -2 20 10 11 48 35 84 53 37 18 58 33 49 35 -21 4 -91 -31
-142 -71 -38 -30 -38 -30 -31 -6 22 74 89 136 170 159 52 14 75 37 29 27 -16
-3 -38 -9 -49 -13 -20 -6 -20 -6 0 9 74 55 273 61 420 13 59 -19 115 -49 210
-113 154 -103 382 -241 474 -288 104 -52 192 -75 286 -75 217 0 387 80 502
236 75 102 134 225 292 609 98 237 134 299 229 386 75 69 134 106 207 131 64
22 90 22 140 -1z m-3513 -578 l15 -578 -141 -140 c-435 -432 -809 -787 -816
-774 -5 7 -9 78 -10 158 0 80 -9 405 -19 721 -10 316 -16 580 -14 585 2 6 34
29 71 51 69 43 292 183 662 417 118 75 220 137 226 137 7 0 15 -183 26 -577z
m1073 -13 c15 -6 5 -9 -35 -9 -30 -1 -71 -5 -89 -11 -33 -9 -51 -7 -39 5 7 7
86 23 118 23 14 0 34 -3 45 -8z m10 -225 c29 -14 29 -14 -15 -7 -25 4 -80 7
-122 7 -43 -1 -78 2 -78 6 0 22 163 17 215 -6z m-452 -327 c30 -1 32 -5 13
-31 -12 -16 -25 -17 -112 -12 -245 14 -441 25 -461 25 -15 0 -23 6 -23 16 0
15 24 16 278 10 152 -4 289 -8 305 -8z m367 -40 c58 -28 41 -31 -110 -20
l-115 8 50 16 c69 23 122 21 175 -4z m-575 -33 c127 -8 286 -16 355 -19 284
-12 301 -14 343 -52 l38 -35 -211 -426 -210 -426 -277 7 c-153 4 -514 13 -803
21 -289 8 -536 15 -549 15 -26 0 -13 14 624 623 l320 306 70 0 c39 0 174 -6
300 -14z m905 -136 l65 0 40 -54 c22 -30 39 -58 38 -62 -10 -49 -246 -850
-252 -856 -4 -4 -698 -6 -1544 -5 l-1536 3 122 114 c67 63 199 187 292 276
295 280 440 415 445 415 3 0 6 -10 5 -22 0 -13 4 -153 8 -311 6 -203 5 -292
-2 -301 -9 -11 16 -13 131 -15 174 -1 1207 -28 1445 -37 l173 -6 216 437 217
437 36 -7 c20 -4 65 -7 101 -6z m-2110 -1739 c0 -661 1 -680 19 -690 25 -13
27 -13 45 6 14 14 16 90 16 690 l0 674 715 0 715 0 0 -104 c0 -57 3 -111 6
-119 4 -11 -8 -20 -43 -32 -223 -81 -471 -203 -655 -323 -133 -87 -125 -71
-107 -212 31 -254 135 -554 261 -751 19 -30 38 -60 42 -66 6 -10 -178 -13
-903 -13 l-911 0 0 810 0 810 400 0 400 0 0 -680z m1650 585 c0 -83 -2 -96
-19 -105 -38 -20 -41 -13 -41 95 l0 105 30 0 30 0 0 -95z m0 -229 l0 -94 -32
-19 c-254 -148 -399 -249 -536 -373 -70 -62 -72 -66 -72 -110 0 -136 46 -437
93 -612 l24 -88 -31 0 c-28 0 -36 8 -83 83 -154 246 -252 532 -270 783 l-6 81
44 30 c143 98 345 209 503 275 91 38 341 133 364 137 1 1 2 -41 2 -93z m0
-721 l0 -575 -241 2 -242 3 -14 40 c-41 114 -94 421 -106 617 l-5 67 62 53
c84 75 189 156 266 208 74 51 261 160 272 160 5 0 8 -259 8 -575z m-490 -674
c16 -30 12 -36 -10 -16 -21 19 -26 35 -10 35 5 0 14 -9 20 -19z m490 -386 c0
-223 -2 -405 -5 -405 -9 0 -139 181 -192 265 -99 159 -224 420 -248 518 l-7
27 226 0 226 0 0 -405z m270 -594 l64 -130 -49 -58 c-26 -32 -81 -100 -122
-151 -42 -50 -77 -92 -79 -92 -2 0 -4 116 -4 258 l0 258 43 21 c74 38 76 37
147 -106z"/>
<path d="M3363 5864 c-114 -75 -316 -206 -448 -292 -132 -85 -246 -161 -254
-168 -12 -11 -13 -46 -3 -241 7 -125 17 -372 23 -548 6 -176 14 -387 17 -469
l7 -150 320 309 c176 170 382 369 459 443 l139 134 -12 230 c-6 127 -14 377
-18 555 -3 178 -10 326 -14 328 -4 3 -101 -56 -216 -131z m217 -121 c0 -216 9
-467 25 -753 l6 -105 -322 -310 c-178 -170 -378 -364 -446 -429 -68 -65 -125
-117 -127 -115 -2 2 -9 166 -15 364 -6 198 -18 504 -27 680 -8 176 -12 321 -7
323 4 1 208 133 453 292 245 160 448 290 453 290 4 0 7 -107 7 -237z"/>
<path d="M3313 5605 c-11 -8 -28 -33 -37 -55 -14 -37 -15 -44 -1 -77 8 -20 18
-33 22 -29 4 3 1 12 -5 18 -35 35 9 140 62 146 16 2 33 -1 39 -7 6 -6 16 -11
22 -11 5 0 1 7 -9 15 -25 19 -66 19 -93 0z"/>
<path d="M3463 5206 c-33 -24 -117 -106 -186 -183 -69 -77 -151 -157 -181
-178 -63 -43 -68 -62 -6 -21 47 31 87 70 235 230 62 68 135 136 169 158 32 21
52 38 44 38 -9 0 -43 -20 -75 -44z"/>
<path d="M3327 4829 c-76 -39 -149 -50 -344 -52 -155 -2 -194 -6 -223 -20 -19
-10 -26 -15 -15 -11 61 17 137 23 285 22 175 -2 236 10 330 62 45 25 17 24
-33 -1z"/>
<path d="M3552 4603 c-234 -265 -498 -580 -491 -588 3 -2 35 32 72 75 l67 80
111 0 c85 0 109 -3 103 -12 -4 -7 -29 -44 -57 -81 -27 -37 -47 -70 -45 -72 2
-3 33 34 67 81 l63 86 112 -7 c61 -3 114 -10 118 -13 4 -4 -18 -47 -48 -96
-30 -49 -53 -91 -50 -93 2 -3 30 39 63 91 48 80 62 96 83 96 29 0 162 -19 167
-24 2 -1 -20 -42 -47 -91 -28 -48 -49 -90 -46 -92 5 -5 13 7 81 127 102 181
277 438 405 594 39 48 70 90 67 92 -2 3 -30 -27 -62 -67 -46 -56 -61 -70 -79
-66 -11 3 -50 11 -86 18 -36 6 -67 13 -69 15 -2 2 8 19 23 39 15 19 23 35 19
35 -4 0 -19 -16 -33 -36 l-25 -35 -68 7 c-38 3 -80 9 -94 13 l-24 6 21 28 c29
36 17 35 -18 -3 -27 -29 -27 -29 -115 -23 l-88 6 27 28 c15 16 25 31 22 34 -3
3 -69 -65 -146 -152z m256 63 c2 -3 -15 -28 -38 -57 -39 -45 -47 -50 -73 -45
-16 3 -58 6 -94 6 l-64 0 48 56 48 56 84 -6 c46 -3 86 -7 89 -10z m155 -12
c31 -3 57 -8 57 -10 0 -3 -17 -27 -37 -54 l-38 -50 -60 6 c-33 4 -77 9 -98 13
l-39 6 43 53 c40 49 46 53 79 48 19 -3 61 -8 93 -12z m204 -34 l52 -11 -35
-50 c-25 -33 -43 -49 -57 -48 -39 1 -159 24 -161 30 0 4 14 28 33 54 38 53 39
53 168 25z m-383 -74 c93 -7 146 -16 146 -25 0 -3 -16 -28 -36 -54 -28 -39
-40 -48 -57 -44 -12 3 -57 9 -99 12 -43 4 -78 10 -78 14 0 3 14 23 31 44 17
21 29 40 26 43 -3 3 -22 -17 -43 -44 l-37 -50 -105 0 -104 -1 23 27 c13 15 37
42 54 61 l30 33 85 -5 c47 -3 121 -8 164 -11z m269 -36 c42 -7 77 -14 77 -17
0 -2 -16 -27 -35 -57 l-36 -53 -85 18 c-47 10 -88 19 -90 21 -8 9 69 109 80
105 7 -3 47 -11 89 -17z m-440 -93 c-4 -7 -24 -34 -43 -60 l-35 -46 -108 -1
-109 0 34 41 c18 22 40 49 48 59 13 17 29 19 118 20 82 0 101 -3 95 -13z m219
-6 c15 -5 13 -13 -20 -63 l-37 -58 -80 6 c-44 4 -95 9 -113 13 l-32 6 46 58
46 59 86 -7 c48 -4 95 -10 104 -14z m141 -22 c37 -7 67 -17 67 -22 0 -6 -39
-69 -65 -105 -3 -3 -113 13 -163 24 -23 5 -23 5 -7 32 43 67 67 93 83 88 9 -2
47 -10 85 -17z m-460 -101 c-5 -7 -25 -34 -45 -59 l-37 -46 -112 -2 -111 -2
33 41 c19 23 41 50 49 60 13 17 29 19 124 20 85 0 106 -3 99 -12z m205 -4 c23
-3 42 -7 42 -10 0 -2 -15 -27 -32 -55 l-33 -51 -80 6 c-44 3 -97 6 -117 6 -21
0 -38 4 -38 9 0 5 18 32 40 60 l41 51 67 -5 c37 -3 86 -8 110 -11z m176 -24
c33 -5 61 -12 64 -14 4 -5 -46 -94 -58 -101 -7 -4 -181 15 -189 22 -2 1 12 27
32 58 33 48 40 54 64 50 16 -3 55 -9 87 -15z"/>
<path d="M4135 4339 c-75 -110 -135 -202 -133 -205 3 -2 63 83 135 188 143
212 146 218 139 218 -3 0 -66 -90 -141 -201z"/>
<path d="M4247 4403 c-119 -193 -148 -245 -142 -251 9 -9 209 -16 239 -8 16 4
30 21 44 53 11 27 40 92 66 146 l45 97 -114 0 -115 0 -23 -37z m153 15 c0 -7
-28 -70 -62 -140 l-62 -128 -52 0 c-28 0 -65 3 -82 6 l-30 6 60 97 c118 190
100 171 168 171 41 0 60 -4 60 -12z m78 3 c-1 -4 -30 -65 -62 -135 -57 -122
-60 -126 -91 -126 l-31 0 51 103 c28 56 57 117 63 135 9 27 16 32 42 32 18 0
30 -4 28 -9z"/>
<path d="M8712 5327 c-139 -206 -220 -431 -337 -942 -202 -880 -436 -1495
-752 -1972 -43 -65 -81 -123 -86 -130 -4 -6 -3 -14 2 -17 24 -15 239 335 357
579 104 217 166 372 247 615 88 264 107 332 247 879 66 260 139 527 161 593
45 136 116 283 183 381 25 37 46 72 46 77 0 25 -23 4 -68 -63z"/>
<path d="M313 383 c-7 -2 -13 -18 -13 -34 0 -21 6 -30 23 -34 12 -3 152 -4
311 -3 262 3 290 5 300 21 8 12 8 22 0 35 -10 15 -37 17 -310 19 -164 1 -305
-1 -311 -4z"/>
<path d="M5522 118 c-18 -18 -15 -46 7 -58 11 -5 73 -10 138 -10 131 0 157 9
151 51 l-3 24 -140 3 c-101 2 -144 -1 -153 -10z"/>
<path d="M2424 96 c-3 -8 -4 -23 -2 -33 3 -17 19 -18 200 -21 185 -2 197 -1
202 16 4 11 4 27 0 36 -5 14 -30 16 -200 16 -160 0 -196 -3 -200 -14z"/>
</g>
</svg>
